<?xml version="1.0" encoding="iso-8859-1"?>
<!-- Generator: Adobe Illustrator 19.0.0, SVG Export Plug-In . SVG Version: 6.00 Build 0)  -->
<svg version="1.1" id="Capa_1" xmlns="http://www.w3.org/2000/svg" xmlns:xlink="http://www.w3.org/1999/xlink" x="0px" y="0px"
	 viewBox="0 0 188.135 188.135" style="fill: #FF00E4;" xml:space="preserve">
<g>
	<g id="previous_1_">
		<path d="M94.068,188.135C42.199,188.135,0,145.937,0,94.068S42.199,0,94.068,0s94.067,42.198,94.067,94.067
			S145.937,188.135,94.068,188.135z M94.068,3C43.853,3,3,43.853,3,94.068s40.853,91.067,91.068,91.067s91.067-40.853,91.067-91.067
			S144.283,3,94.068,3z"/>
		<path d="M135.635,138.125l-76.31-44.057l76.311-44.057v88.114H135.635z M65.325,94.068l67.311,38.861V55.207L65.325,94.068z"/>
		<rect x="52.635" y="53.068" width="3" height="82"/>
	</g>
</g>
<g>
</g>
<g>
</g>
<g>
</g>
<g>
</g>
<g>
</g>
<g>
</g>
<g>
</g>
<g>
</g>
<g>
</g>
<g>
</g>
<g>
</g>
<g>
</g>
<g>
</g>
<g>
</g>
<g>
</g>
</svg>
