<?xml version="1.0" encoding="iso-8859-1"?>
<!-- Generator: Adobe Illustrator 19.0.0, SVG Export Plug-In . SVG Version: 6.00 Build 0)  -->
<svg version="1.1" id="Capa_1" xmlns="http://www.w3.org/2000/svg" xmlns:xlink="http://www.w3.org/1999/xlink" x="0px" y="0px"
	 viewBox="0 0 188.135 188.135" style="fill: #FF00E4;" xml:space="preserve">
<g>
	<g id="next_1_">
		<path d="M94.068,188.135C42.198,188.135,0,145.937,0,94.067S42.198,0,94.068,0s94.067,42.198,94.067,94.067
			S145.937,188.135,94.068,188.135z M94.068,3C43.853,3,3,43.853,3,94.067s40.853,91.068,91.067,91.068s91.067-40.853,91.067-91.068
			S144.282,3,94.068,3z"/>
		<g>
			<path d="M52.635,138.153V50.039l76.311,44.057L52.635,138.153z M55.635,55.235v77.722l67.311-38.861L55.635,55.235z"/>
			<rect x="132.635" y="53.096" width="3" height="82"/>
		</g>
	</g>
</g>
<g>
</g>
<g>
</g>
<g>
</g>
<g>
</g>
<g>
</g>
<g>
</g>
<g>
</g>
<g>
</g>
<g>
</g>
<g>
</g>
<g>
</g>
<g>
</g>
<g>
</g>
<g>
</g>
<g>
</g>
</svg>
